<svg xmlns="http://www.w3.org/2000/svg" xmlns:xlink="http://www.w3.org/1999/xlink" width="1000" zoomAndPan="magnify" viewBox="0 0 750 749.999995" height="1000" preserveAspectRatio="xMidYMid meet" version="1.0"><defs><clipPath id="c5a21380a1"><path d="M 76.175781 28 L 674.675781 28 L 674.675781 722 L 76.175781 722 Z M 76.175781 28 " clip-rule="nonzero"/></clipPath></defs><g clip-path="url(#c5a21380a1)"><path fill="#c5a747" d="M 311.871094 91.035156 C 311.871094 88.996094 311.96875 86.960938 312.171875 84.929688 C 312.371094 82.902344 312.667969 80.886719 313.066406 78.886719 C 313.464844 76.886719 313.960938 74.910156 314.550781 72.957031 C 315.144531 71.003906 315.832031 69.085938 316.609375 67.203125 C 317.390625 65.320312 318.261719 63.476562 319.222656 61.679688 C 320.183594 59.878906 321.234375 58.132812 322.367188 56.4375 C 323.5 54.742188 324.710938 53.105469 326.007812 51.527344 C 327.300781 49.949219 328.667969 48.441406 330.109375 47 C 331.554688 45.558594 333.0625 44.1875 334.640625 42.894531 C 336.214844 41.601562 337.851562 40.386719 339.546875 39.253906 C 341.242188 38.121094 342.992188 37.074219 344.789062 36.113281 C 346.589844 35.152344 348.429688 34.28125 350.316406 33.5 C 352.199219 32.71875 354.117188 32.03125 356.070312 31.441406 C 358.019531 30.847656 359.996094 30.351562 361.996094 29.957031 C 364 29.558594 366.011719 29.257812 368.042969 29.058594 C 370.074219 28.859375 372.109375 28.757812 374.148438 28.757812 C 376.1875 28.757812 378.222656 28.859375 380.25 29.058594 C 382.28125 29.257812 384.296875 29.558594 386.296875 29.957031 C 388.296875 30.351562 390.273438 30.847656 392.226562 31.441406 C 394.175781 32.03125 396.09375 32.71875 397.980469 33.5 C 399.863281 34.28125 401.707031 35.152344 403.503906 36.113281 C 405.304688 37.074219 407.050781 38.121094 408.746094 39.253906 C 410.441406 40.386719 412.078125 41.601562 413.65625 42.894531 C 415.230469 44.1875 416.742188 45.558594 418.183594 47 C 419.625 48.441406 420.992188 49.949219 422.289062 51.527344 C 423.582031 53.105469 424.796875 54.742188 425.929688 56.4375 C 427.0625 58.132812 428.109375 59.878906 429.070312 61.679688 C 430.03125 63.476562 430.902344 65.320312 431.683594 67.203125 C 432.464844 69.085938 433.152344 71.003906 433.742188 72.957031 C 434.335938 74.910156 434.828125 76.886719 435.226562 78.886719 C 435.625 80.886719 435.925781 82.902344 436.125 84.929688 C 436.324219 86.960938 436.425781 88.996094 436.425781 91.035156 C 436.425781 93.074219 436.324219 95.109375 436.125 97.140625 C 435.925781 99.167969 435.625 101.183594 435.226562 103.183594 C 434.828125 105.1875 434.335938 107.160156 433.742188 109.113281 C 433.152344 111.066406 432.464844 112.984375 431.683594 114.867188 C 430.902344 116.753906 430.03125 118.59375 429.070312 120.394531 C 428.109375 122.191406 427.0625 123.9375 425.929688 125.636719 C 424.796875 127.332031 423.582031 128.96875 422.289062 130.542969 C 420.992188 132.121094 419.625 133.628906 418.183594 135.070312 C 416.742188 136.515625 415.230469 137.882812 413.65625 139.175781 C 412.078125 140.46875 410.441406 141.683594 408.746094 142.816406 C 407.050781 143.949219 405.304688 144.996094 403.503906 145.960938 C 401.707031 146.921875 399.863281 147.792969 397.980469 148.570312 C 396.09375 149.351562 394.175781 150.039062 392.226562 150.632812 C 390.273438 151.222656 388.296875 151.71875 386.296875 152.117188 C 384.296875 152.515625 382.28125 152.8125 380.25 153.011719 C 378.222656 153.210938 376.1875 153.3125 374.148438 153.3125 C 372.109375 153.308594 370.074219 153.207031 368.046875 153 C 366.019531 152.796875 364.003906 152.496094 362.007812 152.097656 C 360.007812 151.695312 358.03125 151.199219 356.082031 150.605469 C 354.132812 150.011719 352.214844 149.320312 350.332031 148.539062 C 348.449219 147.757812 346.609375 146.886719 344.8125 145.925781 C 343.015625 144.960938 341.269531 143.914062 339.578125 142.78125 C 337.882812 141.648438 336.246094 140.433594 334.671875 139.140625 C 333.097656 137.847656 331.585938 136.480469 330.144531 135.039062 C 328.703125 133.59375 327.335938 132.085938 326.042969 130.511719 C 324.75 128.9375 323.535156 127.300781 322.402344 125.605469 C 321.269531 123.914062 320.222656 122.167969 319.257812 120.371094 C 318.296875 118.570312 317.425781 116.730469 316.644531 114.847656 C 315.859375 112.96875 315.171875 111.050781 314.578125 109.101562 C 313.984375 107.148438 313.488281 105.175781 313.085938 103.175781 C 312.6875 101.179688 312.382812 99.164062 312.179688 97.136719 C 311.976562 95.109375 311.875 93.074219 311.871094 91.035156 Z M 274.503906 364.574219 L 293.667969 364.574219 L 293.667969 284.09375 C 293.667969 283.308594 293.742188 282.527344 293.894531 281.757812 C 294.050781 280.988281 294.277344 280.238281 294.578125 279.511719 C 294.878906 278.785156 295.246094 278.09375 295.683594 277.441406 C 296.121094 276.785156 296.617188 276.179688 297.175781 275.625 C 297.730469 275.070312 298.335938 274.574219 298.988281 274.136719 C 299.644531 273.699219 300.332031 273.332031 301.058594 273.03125 C 301.785156 272.726562 302.535156 272.5 303.304688 272.347656 C 304.078125 272.195312 304.855469 272.117188 305.644531 272.117188 C 306.429688 272.117188 307.207031 272.195312 307.980469 272.347656 C 308.75 272.5 309.5 272.726562 310.226562 273.03125 C 310.953125 273.332031 311.640625 273.699219 312.296875 274.136719 C 312.949219 274.574219 313.554688 275.070312 314.109375 275.625 C 314.667969 276.179688 315.164062 276.785156 315.601562 277.441406 C 316.039062 278.09375 316.40625 278.785156 316.707031 279.511719 C 317.007812 280.238281 317.234375 280.988281 317.390625 281.757812 C 317.542969 282.527344 317.617188 283.308594 317.617188 284.09375 L 317.617188 364.574219 L 443.847656 364.574219 C 445.027344 364.574219 446.199219 364.515625 447.371094 364.402344 C 448.542969 364.285156 449.703125 364.113281 450.859375 363.882812 C 452.011719 363.65625 453.152344 363.371094 454.277344 363.027344 C 455.40625 362.6875 456.511719 362.289062 457.597656 361.839844 C 458.6875 361.390625 459.75 360.886719 460.785156 360.332031 C 461.824219 359.777344 462.832031 359.171875 463.808594 358.519531 C 464.789062 357.867188 465.734375 357.164062 466.640625 356.417969 C 467.550781 355.671875 468.421875 354.882812 469.253906 354.050781 C 470.085938 353.21875 470.875 352.347656 471.621094 351.4375 C 472.371094 350.53125 473.070312 349.585938 473.722656 348.605469 C 474.378906 347.628906 474.980469 346.621094 475.535156 345.582031 C 476.089844 344.546875 476.59375 343.484375 477.042969 342.394531 C 477.492188 341.308594 477.890625 340.203125 478.230469 339.074219 C 478.574219 337.949219 478.859375 336.808594 479.089844 335.65625 C 479.316406 334.5 479.488281 333.339844 479.605469 332.167969 C 479.722656 330.996094 479.777344 329.824219 479.777344 328.644531 L 479.777344 288.285156 L 514.628906 312.238281 L 515.707031 312.957031 C 516.691406 313.511719 517.695312 314.019531 518.722656 314.480469 C 519.75 314.945312 520.792969 315.359375 521.859375 315.730469 C 522.921875 316.101562 524.003906 316.421875 525.09375 316.699219 C 526.1875 316.972656 527.292969 317.195312 528.40625 317.371094 C 529.519531 317.546875 530.636719 317.675781 531.761719 317.75 C 532.886719 317.828125 534.011719 317.851562 535.136719 317.828125 C 536.265625 317.804688 537.386719 317.730469 538.507812 317.605469 C 539.628906 317.484375 540.742188 317.308594 541.84375 317.085938 C 542.949219 316.863281 544.042969 316.589844 545.121094 316.269531 C 546.203125 315.949219 547.265625 315.582031 548.316406 315.167969 C 549.363281 314.753906 550.390625 314.292969 551.394531 313.785156 C 552.402344 313.277344 553.386719 312.726562 554.34375 312.132812 C 555.300781 311.539062 556.230469 310.90625 557.132812 310.226562 C 558.03125 309.550781 558.902344 308.835938 559.738281 308.082031 C 560.574219 307.328125 561.378906 306.535156 562.144531 305.710938 C 562.910156 304.886719 563.640625 304.027344 564.332031 303.136719 C 566.007812 300.742188 595.589844 263.613281 614.871094 239.421875 C 616.410156 237.578125 617.738281 235.59375 618.863281 233.46875 C 619.984375 231.34375 620.878906 229.128906 621.539062 226.820312 C 622.199219 224.507812 622.613281 222.15625 622.78125 219.757812 C 622.949219 217.363281 622.867188 214.976562 622.535156 212.59375 C 622.195312 210.195312 621.609375 207.855469 620.78125 205.574219 C 619.953125 203.292969 618.898438 201.125 617.621094 199.0625 C 616.34375 197 614.867188 195.09375 613.195312 193.335938 C 611.519531 191.582031 609.683594 190.015625 607.6875 188.644531 C 606.773438 188.070312 605.835938 187.542969 604.875 187.058594 C 603.914062 186.570312 602.933594 186.128906 601.933594 185.730469 C 600.933594 185.332031 599.917969 184.980469 598.886719 184.671875 C 597.851562 184.367188 596.808594 184.105469 595.753906 183.890625 C 594.699219 183.679688 593.636719 183.515625 592.566406 183.398438 C 591.496094 183.277344 590.421875 183.210938 589.34375 183.1875 C 588.269531 183.167969 587.195312 183.195312 586.121094 183.269531 C 585.046875 183.347656 583.976562 183.46875 582.914062 183.640625 C 581.851562 183.8125 580.796875 184.03125 579.753906 184.300781 C 578.710938 184.566406 577.683594 184.878906 576.667969 185.238281 C 575.652344 185.597656 574.65625 186 573.675781 186.449219 C 572.699219 186.894531 571.742188 187.386719 570.808594 187.921875 C 569.871094 188.457031 568.964844 189.03125 568.082031 189.648438 C 567.199219 190.265625 566.34375 190.917969 565.519531 191.613281 C 564.695312 192.304688 563.90625 193.035156 563.144531 193.796875 C 562.386719 194.5625 561.664062 195.359375 560.976562 196.1875 L 529.121094 234.511719 L 471.394531 191.398438 C 466.625 188.390625 461.664062 185.734375 456.519531 183.425781 C 451.371094 181.121094 446.085938 179.1875 440.667969 177.625 C 435.246094 176.066406 429.746094 174.894531 424.160156 174.113281 C 418.574219 173.328125 412.960938 172.945312 407.320312 172.953125 L 306.480469 172.953125 C 305.359375 172.984375 304.238281 173.039062 303.121094 173.125 C 302 173.207031 300.882812 173.320312 299.769531 173.457031 C 298.65625 173.597656 297.546875 173.761719 296.441406 173.957031 C 295.335938 174.148438 294.234375 174.367188 293.140625 174.617188 C 292.046875 174.863281 290.957031 175.136719 289.875 175.4375 C 288.796875 175.738281 287.722656 176.066406 286.65625 176.417969 C 285.589844 176.773438 284.535156 177.152344 283.488281 177.554688 C 282.441406 177.960938 281.40625 178.390625 280.378906 178.847656 C 279.355469 179.304688 278.339844 179.785156 277.339844 180.289062 C 276.335938 180.796875 275.347656 181.324219 274.371094 181.878906 C 273.398438 182.433594 272.433594 183.011719 271.488281 183.613281 C 270.539062 184.214844 269.609375 184.839844 268.691406 185.484375 C 267.773438 186.132812 266.871094 186.800781 265.988281 187.492188 C 265.105469 188.183594 264.238281 188.894531 263.390625 189.628906 C 262.539062 190.363281 261.707031 191.117188 260.898438 191.894531 C 260.085938 192.667969 259.292969 193.460938 258.519531 194.273438 C 257.746094 195.089844 256.992188 195.917969 256.261719 196.769531 C 255.527344 197.621094 254.816406 198.488281 254.125 199.375 C 253.4375 200.257812 252.769531 201.160156 252.125 202.078125 C 251.476562 202.996094 250.855469 203.929688 250.253906 204.878906 C 249.65625 205.828125 249.078125 206.789062 248.527344 207.765625 C 247.972656 208.742188 247.445312 209.734375 246.941406 210.734375 C 246.4375 211.738281 245.957031 212.753906 245.503906 213.78125 C 245.050781 214.804688 244.621094 215.84375 244.21875 216.890625 C 243.816406 217.9375 243.4375 218.992188 243.085938 220.058594 C 242.734375 221.125 242.410156 222.199219 242.109375 223.28125 C 241.8125 224.363281 241.539062 225.449219 241.292969 226.546875 C 241.046875 227.640625 240.828125 228.742188 240.636719 229.847656 C 240.445312 230.953125 240.28125 232.0625 240.144531 233.175781 C 240.007812 234.292969 239.898438 235.40625 239.816406 236.527344 C 239.734375 237.644531 239.679688 238.765625 239.652344 239.890625 C 239.625 241.011719 239.625 242.132812 239.652344 243.253906 L 238.574219 328.40625 C 238.515625 330.789062 238.699219 333.152344 239.121094 335.5 C 239.542969 337.84375 240.199219 340.125 241.082031 342.335938 C 241.96875 344.550781 243.066406 346.652344 244.378906 348.640625 C 245.691406 350.632812 247.191406 352.46875 248.875 354.15625 C 250.558594 355.828125 252.394531 357.316406 254.375 358.625 C 256.355469 359.933594 258.445312 361.035156 260.644531 361.929688 C 262.847656 362.824219 265.113281 363.496094 267.445312 363.941406 C 269.777344 364.386719 272.128906 364.597656 274.503906 364.574219 Z M 580.617188 573.441406 L 541.816406 573.441406 C 534.789062 573.433594 527.847656 574.210938 520.996094 575.765625 C 514.144531 577.320312 507.550781 579.621094 501.214844 582.664062 C 505.105469 590.585938 508.058594 598.84375 510.082031 607.4375 C 512.101562 616.027344 513.140625 624.738281 513.191406 633.5625 C 513.183594 635.480469 513.105469 637.398438 512.957031 639.308594 C 512.808594 641.222656 512.589844 643.125 512.300781 645.023438 C 512.011719 646.917969 511.652344 648.800781 511.222656 650.671875 C 510.792969 652.539062 510.296875 654.390625 509.730469 656.222656 C 509.164062 658.058594 508.53125 659.867188 507.832031 661.652344 C 507.132812 663.4375 506.371094 665.195312 505.539062 666.925781 C 504.710938 668.65625 503.820312 670.351562 502.863281 672.015625 C 501.910156 673.679688 500.894531 675.304688 499.820312 676.894531 C 498.746094 678.484375 497.613281 680.03125 496.421875 681.535156 C 495.234375 683.039062 493.992188 684.5 492.695312 685.910156 C 491.394531 687.324219 490.046875 688.6875 488.652344 690 C 487.253906 691.316406 485.808594 692.574219 484.316406 693.78125 C 482.828125 694.988281 481.292969 696.136719 479.714844 697.230469 C 478.140625 698.324219 476.527344 699.359375 474.875 700.332031 C 473.222656 701.304688 471.535156 702.21875 469.816406 703.066406 C 468.09375 703.917969 466.347656 704.703125 464.570312 705.421875 C 467.050781 707.890625 469.75 710.09375 472.664062 712.03125 C 475.578125 713.96875 478.652344 715.605469 481.890625 716.941406 C 485.125 718.277344 488.460938 719.285156 491.894531 719.96875 C 495.328125 720.648438 498.792969 720.988281 502.292969 720.992188 L 620.980469 720.992188 C 622.742188 720.988281 624.503906 720.898438 626.257812 720.71875 C 628.011719 720.542969 629.753906 720.28125 631.484375 719.933594 C 633.214844 719.589844 634.921875 719.15625 636.609375 718.644531 C 638.296875 718.128906 639.957031 717.53125 641.585938 716.855469 C 643.214844 716.179688 644.804688 715.425781 646.359375 714.589844 C 647.914062 713.757812 649.425781 712.851562 650.894531 711.871094 C 652.359375 710.890625 653.773438 709.839844 655.136719 708.722656 C 656.5 707.601562 657.804688 706.417969 659.054688 705.171875 C 660.300781 703.921875 661.484375 702.617188 662.601562 701.253906 C 663.722656 699.890625 664.773438 698.476562 665.753906 697.011719 C 666.734375 695.542969 667.640625 694.035156 668.472656 692.480469 C 669.308594 690.921875 670.0625 689.332031 670.738281 687.703125 C 671.414062 686.074219 672.011719 684.414062 672.523438 682.726562 C 673.039062 681.039062 673.46875 679.332031 673.816406 677.601562 C 674.164062 675.875 674.425781 674.132812 674.601562 672.375 C 674.777344 670.621094 674.867188 668.859375 674.871094 667.097656 C 674.867188 665.558594 674.824219 664.023438 674.742188 662.488281 C 674.660156 660.953125 674.542969 659.421875 674.386719 657.890625 C 674.230469 656.363281 674.035156 654.835938 673.804688 653.316406 C 673.574219 651.796875 673.304688 650.285156 673 648.777344 C 672.695312 647.269531 672.351562 645.773438 671.972656 644.28125 C 671.59375 642.792969 671.179688 641.3125 670.726562 639.84375 C 670.277344 638.375 669.789062 636.917969 669.265625 635.46875 C 668.742188 634.023438 668.183594 632.59375 667.589844 631.175781 C 666.996094 629.757812 666.371094 628.351562 665.707031 626.964844 C 665.046875 625.578125 664.347656 624.207031 663.621094 622.855469 C 662.890625 621.5 662.128906 620.167969 661.332031 618.851562 C 660.539062 617.535156 659.710938 616.238281 658.855469 614.964844 C 657.996094 613.6875 657.105469 612.433594 656.1875 611.203125 C 655.265625 609.972656 654.316406 608.761719 653.339844 607.578125 C 652.359375 606.390625 651.351562 605.230469 650.316406 604.09375 C 649.277344 602.960938 648.214844 601.851562 647.125 600.765625 C 646.035156 599.683594 644.917969 598.625 643.777344 597.597656 C 642.632812 596.570312 641.464844 595.570312 640.273438 594.597656 C 639.082031 593.625 637.871094 592.683594 636.632812 591.773438 C 635.394531 590.859375 634.132812 589.976562 632.855469 589.128906 C 631.574219 588.277344 630.273438 587.460938 628.949219 586.671875 C 627.628906 585.886719 626.289062 585.132812 624.933594 584.414062 C 623.574219 583.691406 622.199219 583.003906 620.808594 582.351562 C 619.417969 581.699219 618.007812 581.078125 616.585938 580.496094 C 615.164062 579.910156 613.730469 579.363281 612.28125 578.847656 C 610.832031 578.335938 609.371094 577.855469 607.898438 577.414062 C 606.425781 576.972656 604.945312 576.566406 603.453125 576.195312 C 601.960938 575.828125 600.457031 575.496094 598.949219 575.199219 C 597.441406 574.902344 595.925781 574.644531 594.40625 574.421875 C 592.882812 574.203125 591.359375 574.015625 589.828125 573.871094 C 588.296875 573.722656 586.765625 573.613281 585.230469 573.542969 C 583.691406 573.472656 582.15625 573.4375 580.617188 573.441406 Z M 561.21875 449.726562 C 559.351562 449.726562 557.488281 449.816406 555.628906 450 C 553.773438 450.183594 551.925781 450.457031 550.097656 450.820312 C 548.265625 451.1875 546.457031 451.640625 544.667969 452.179688 C 542.882812 452.722656 541.125 453.351562 539.402344 454.066406 C 537.675781 454.78125 535.992188 455.578125 534.34375 456.457031 C 532.699219 457.339844 531.097656 458.296875 529.546875 459.335938 C 527.992188 460.371094 526.496094 461.480469 525.050781 462.667969 C 523.609375 463.851562 522.226562 465.105469 520.90625 466.421875 C 519.585938 467.742188 518.335938 469.125 517.148438 470.570312 C 515.964844 472.011719 514.855469 473.511719 513.816406 475.0625 C 512.78125 476.613281 511.820312 478.214844 510.941406 479.859375 C 510.0625 481.507812 509.265625 483.191406 508.550781 484.917969 C 507.835938 486.644531 507.207031 488.398438 506.664062 490.1875 C 506.121094 491.972656 505.667969 493.78125 505.304688 495.613281 C 504.941406 497.445312 504.667969 499.289062 504.484375 501.144531 C 504.300781 503.003906 504.210938 504.867188 504.210938 506.734375 C 504.210938 508.601562 504.300781 510.464844 504.484375 512.320312 C 504.667969 514.179688 504.941406 516.023438 505.304688 517.855469 C 505.667969 519.6875 506.121094 521.496094 506.664062 523.28125 C 507.207031 525.070312 507.835938 526.824219 508.550781 528.550781 C 509.265625 530.273438 510.0625 531.960938 510.941406 533.605469 C 511.820312 535.253906 512.78125 536.851562 513.816406 538.40625 C 514.855469 539.957031 515.964844 541.457031 517.148438 542.898438 C 518.335938 544.34375 519.585938 545.722656 520.90625 547.042969 C 522.226562 548.363281 523.609375 549.617188 525.050781 550.800781 C 526.496094 551.984375 527.992188 553.097656 529.546875 554.132812 C 531.097656 555.171875 532.699219 556.128906 534.34375 557.011719 C 535.992188 557.890625 537.675781 558.6875 539.402344 559.402344 C 541.125 560.117188 542.882812 560.746094 544.667969 561.285156 C 546.457031 561.828125 548.265625 562.28125 550.097656 562.644531 C 551.925781 563.011719 553.773438 563.285156 555.628906 563.46875 C 557.488281 563.648438 559.351562 563.742188 561.21875 563.742188 C 563.085938 563.742188 564.945312 563.648438 566.804688 563.46875 C 568.664062 563.285156 570.507812 563.011719 572.339844 562.644531 C 574.171875 562.28125 575.980469 561.828125 577.765625 561.285156 C 579.550781 560.746094 581.308594 560.117188 583.03125 559.402344 C 584.757812 558.6875 586.445312 557.890625 588.089844 557.011719 C 589.738281 556.128906 591.335938 555.171875 592.890625 554.132812 C 594.441406 553.097656 595.9375 551.984375 597.382812 550.800781 C 598.824219 549.617188 600.207031 548.363281 601.527344 547.042969 C 602.847656 545.722656 604.101562 544.34375 605.285156 542.898438 C 606.46875 541.457031 607.578125 539.957031 608.617188 538.40625 C 609.65625 536.851562 610.613281 535.253906 611.492188 533.605469 C 612.375 531.960938 613.171875 530.273438 613.886719 528.550781 C 614.601562 526.824219 615.226562 525.070312 615.769531 523.28125 C 616.3125 521.496094 616.765625 519.6875 617.128906 517.855469 C 617.492188 516.023438 617.765625 514.179688 617.949219 512.320312 C 618.132812 510.464844 618.226562 508.601562 618.226562 506.734375 C 618.226562 504.867188 618.132812 503.003906 617.949219 501.144531 C 617.765625 499.289062 617.492188 497.445312 617.128906 495.613281 C 616.765625 493.78125 616.3125 491.972656 615.769531 490.1875 C 615.226562 488.398438 614.601562 486.644531 613.886719 484.917969 C 613.171875 483.191406 612.375 481.507812 611.492188 479.859375 C 610.613281 478.214844 609.65625 476.613281 608.617188 475.0625 C 607.578125 473.511719 606.46875 472.011719 605.285156 470.570312 C 604.101562 469.125 602.847656 467.742188 601.527344 466.421875 C 600.207031 465.105469 598.824219 463.851562 597.382812 462.667969 C 595.9375 461.480469 594.441406 460.371094 592.890625 459.335938 C 591.335938 458.296875 589.738281 457.339844 588.089844 456.457031 C 586.445312 455.578125 584.757812 454.78125 583.03125 454.066406 C 581.308594 453.351562 579.550781 452.722656 577.765625 452.179688 C 575.980469 451.640625 574.171875 451.1875 572.339844 450.820312 C 570.507812 450.457031 568.664062 450.183594 566.804688 450 C 564.945312 449.816406 563.085938 449.726562 561.21875 449.726562 Z M 489.359375 633.5625 C 489.359375 632.027344 489.316406 630.492188 489.242188 628.957031 C 489.164062 627.421875 489.046875 625.890625 488.898438 624.363281 C 488.746094 622.835938 488.554688 621.3125 488.328125 619.792969 C 488.101562 618.273438 487.835938 616.761719 487.535156 615.253906 C 487.234375 613.746094 486.898438 612.25 486.523438 610.757812 C 486.148438 609.269531 485.738281 607.789062 485.289062 606.320312 C 484.84375 604.851562 484.359375 603.394531 483.839844 601.945312 C 483.324219 600.5 482.769531 599.070312 482.179688 597.648438 C 481.589844 596.230469 480.96875 594.828125 480.3125 593.441406 C 479.652344 592.050781 478.960938 590.679688 478.238281 589.324219 C 477.511719 587.972656 476.753906 586.636719 475.964844 585.316406 C 475.175781 584 474.351562 582.703125 473.5 581.425781 C 472.644531 580.148438 471.761719 578.894531 470.84375 577.660156 C 469.929688 576.425781 468.984375 575.21875 468.011719 574.03125 C 467.035156 572.84375 466.03125 571.679688 465 570.542969 C 463.96875 569.402344 462.910156 568.292969 461.824219 567.203125 C 460.738281 566.117188 459.625 565.058594 458.488281 564.027344 C 457.347656 562.996094 456.1875 561.992188 455 561.019531 C 453.8125 560.042969 452.601562 559.097656 451.367188 558.183594 C 450.132812 557.269531 448.878906 556.382812 447.601562 555.53125 C 446.324219 554.675781 445.027344 553.855469 443.710938 553.0625 C 442.394531 552.273438 441.058594 551.515625 439.703125 550.792969 C 438.347656 550.066406 436.976562 549.375 435.589844 548.71875 C 434.199219 548.058594 432.796875 547.4375 431.378906 546.847656 C 429.960938 546.257812 428.527344 545.707031 427.082031 545.1875 C 425.636719 544.667969 424.175781 544.1875 422.707031 543.738281 C 421.238281 543.292969 419.757812 542.882812 418.269531 542.507812 C 416.777344 542.132812 415.28125 541.792969 413.773438 541.492188 C 412.269531 541.191406 410.753906 540.925781 409.234375 540.699219 C 407.71875 540.472656 406.191406 540.285156 404.664062 540.132812 C 403.136719 539.980469 401.605469 539.863281 400.070312 539.789062 C 398.535156 539.710938 397 539.671875 395.464844 539.667969 L 356.183594 539.667969 C 354.648438 539.671875 353.113281 539.710938 351.578125 539.789062 C 350.042969 539.863281 348.511719 539.980469 346.984375 540.132812 C 345.453125 540.285156 343.929688 540.472656 342.410156 540.699219 C 340.890625 540.929688 339.378906 541.191406 337.875 541.492188 C 336.367188 541.792969 334.867188 542.132812 333.378906 542.507812 C 331.890625 542.882812 330.410156 543.292969 328.941406 543.738281 C 327.46875 544.1875 326.011719 544.667969 324.566406 545.1875 C 323.121094 545.707031 321.6875 546.257812 320.269531 546.847656 C 318.851562 547.4375 317.445312 548.058594 316.058594 548.71875 C 314.671875 549.375 313.300781 550.066406 311.945312 550.792969 C 310.589844 551.515625 309.253906 552.273438 307.9375 553.0625 C 306.621094 553.855469 305.324219 554.675781 304.046875 555.53125 C 302.769531 556.382812 301.515625 557.269531 300.28125 558.183594 C 299.046875 559.097656 297.835938 560.042969 296.648438 561.019531 C 295.460938 561.992188 294.300781 562.996094 293.160156 564.027344 C 292.023438 565.058594 290.910156 566.117188 289.824219 567.203125 C 288.738281 568.292969 287.679688 569.402344 286.648438 570.542969 C 285.617188 571.679688 284.613281 572.84375 283.636719 574.03125 C 282.664062 575.21875 281.71875 576.425781 280.804688 577.660156 C 279.886719 578.894531 279.003906 580.148438 278.148438 581.425781 C 277.296875 582.703125 276.472656 584 275.683594 585.316406 C 274.894531 586.636719 274.136719 587.972656 273.410156 589.324219 C 272.6875 590.679688 271.996094 592.050781 271.335938 593.4375 C 270.679688 594.828125 270.054688 596.230469 269.46875 597.648438 C 268.878906 599.070312 268.324219 600.5 267.804688 601.945312 C 267.289062 603.394531 266.804688 604.851562 266.359375 606.320312 C 265.910156 607.789062 265.5 609.269531 265.125 610.757812 C 264.75 612.25 264.414062 613.746094 264.113281 615.253906 C 263.8125 616.761719 263.546875 618.273438 263.320312 619.792969 C 263.09375 621.3125 262.902344 622.835938 262.75 624.363281 C 262.597656 625.890625 262.484375 627.421875 262.40625 628.957031 C 262.328125 630.492188 262.289062 632.027344 262.289062 633.5625 C 262.292969 635.328125 262.382812 637.085938 262.558594 638.84375 C 262.734375 640.597656 262.996094 642.339844 263.34375 644.070312 C 263.691406 645.796875 264.121094 647.507812 264.636719 649.195312 C 265.148438 650.882812 265.746094 652.539062 266.421875 654.167969 C 267.097656 655.796875 267.855469 657.390625 268.6875 658.945312 C 269.519531 660.5 270.425781 662.011719 271.40625 663.476562 C 272.386719 664.941406 273.4375 666.359375 274.558594 667.722656 C 275.675781 669.085938 276.859375 670.390625 278.109375 671.636719 C 279.355469 672.882812 280.660156 674.066406 282.023438 675.1875 C 283.386719 676.304688 284.800781 677.355469 286.269531 678.335938 C 287.734375 679.320312 289.246094 680.226562 290.800781 681.058594 C 292.355469 681.890625 293.945312 682.644531 295.578125 683.324219 C 297.207031 684 298.863281 684.59375 300.550781 685.109375 C 302.238281 685.625 303.945312 686.054688 305.675781 686.402344 C 307.40625 686.75 309.148438 687.011719 310.902344 687.1875 C 312.65625 687.363281 314.417969 687.453125 316.183594 687.457031 L 435.464844 687.457031 C 437.21875 687.4375 438.96875 687.332031 440.710938 687.144531 C 442.457031 686.953125 444.1875 686.679688 445.902344 686.320312 C 447.621094 685.960938 449.316406 685.519531 450.992188 684.996094 C 452.664062 684.472656 454.308594 683.871094 455.925781 683.1875 C 457.539062 682.503906 459.117188 681.742188 460.660156 680.902344 C 462.199219 680.066406 463.695312 679.15625 465.148438 678.171875 C 466.601562 677.1875 468.003906 676.136719 469.351562 675.019531 C 470.703125 673.898438 471.996094 672.714844 473.230469 671.46875 C 474.464844 670.222656 475.636719 668.921875 476.746094 667.558594 C 477.851562 666.199219 478.890625 664.789062 479.863281 663.328125 C 480.832031 661.867188 481.730469 660.363281 482.554688 658.8125 C 483.375 657.265625 484.125 655.679688 484.792969 654.058594 C 485.460938 652.4375 486.050781 650.789062 486.558594 649.109375 C 487.070312 647.429688 487.496094 645.730469 487.835938 644.011719 C 488.179688 642.289062 488.4375 640.558594 488.613281 638.8125 C 488.789062 637.066406 488.875 635.316406 488.878906 633.5625 Z M 318.578125 472.839844 C 318.574219 474.707031 318.660156 476.574219 318.839844 478.433594 C 319.019531 480.292969 319.289062 482.136719 319.648438 483.96875 C 320.011719 485.800781 320.460938 487.613281 321 489.402344 C 321.539062 491.191406 322.164062 492.949219 322.875 494.675781 C 323.585938 496.402344 324.378906 498.089844 325.257812 499.738281 C 326.136719 501.386719 327.089844 502.988281 328.125 504.546875 C 329.160156 506.101562 330.269531 507.601562 331.453125 509.046875 C 332.632812 510.492188 333.886719 511.878906 335.203125 513.199219 C 336.523438 514.523438 337.902344 515.777344 339.34375 516.964844 C 340.785156 518.152344 342.28125 519.265625 343.832031 520.308594 C 345.386719 521.347656 346.984375 522.308594 348.628906 523.191406 C 350.277344 524.078125 351.960938 524.875 353.683594 525.59375 C 355.410156 526.3125 357.164062 526.941406 358.953125 527.488281 C 360.738281 528.03125 362.546875 528.488281 364.378906 528.855469 C 366.210938 529.222656 368.054688 529.5 369.914062 529.683594 C 371.773438 529.871094 373.636719 529.964844 375.503906 529.96875 C 377.371094 529.96875 379.234375 529.882812 381.09375 529.699219 C 382.953125 529.519531 384.800781 529.25 386.632812 528.886719 C 388.464844 528.523438 390.273438 528.074219 392.0625 527.535156 C 393.851562 526.996094 395.609375 526.367188 397.335938 525.65625 C 399.0625 524.941406 400.75 524.148438 402.398438 523.269531 C 404.046875 522.390625 405.648438 521.433594 407.203125 520.398438 C 408.757812 519.359375 410.253906 518.25 411.699219 517.066406 C 413.144531 515.882812 414.53125 514.632812 415.851562 513.3125 C 417.175781 511.992188 418.429688 510.613281 419.613281 509.171875 C 420.800781 507.726562 421.914062 506.230469 422.953125 504.679688 C 423.992188 503.125 424.953125 501.527344 425.835938 499.878906 C 426.71875 498.234375 427.515625 496.546875 428.234375 494.824219 C 428.949219 493.097656 429.578125 491.339844 430.121094 489.554688 C 430.667969 487.765625 431.121094 485.957031 431.488281 484.125 C 431.851562 482.292969 432.128906 480.449219 432.3125 478.589844 C 432.496094 476.730469 432.589844 474.867188 432.589844 473 C 432.59375 471.132812 432.503906 469.269531 432.320312 467.410156 C 432.140625 465.550781 431.867188 463.707031 431.503906 461.875 C 431.140625 460.042969 430.6875 458.230469 430.144531 456.445312 C 429.605469 454.65625 428.976562 452.898438 428.261719 451.171875 C 427.550781 449.445312 426.753906 447.761719 425.875 446.113281 C 424.992188 444.464844 424.035156 442.863281 422.996094 441.308594 C 421.960938 439.757812 420.851562 438.257812 419.664062 436.8125 C 418.480469 435.367188 417.230469 433.984375 415.910156 432.664062 C 414.589844 431.34375 413.207031 430.089844 411.761719 428.90625 C 410.320312 427.71875 408.820312 426.605469 407.269531 425.570312 C 405.714844 424.53125 404.117188 423.570312 402.46875 422.691406 C 400.820312 421.808594 399.136719 421.011719 397.410156 420.296875 C 395.683594 419.582031 393.925781 418.953125 392.140625 418.410156 C 390.351562 417.867188 388.542969 417.414062 386.710938 417.050781 C 384.878906 416.683594 383.035156 416.410156 381.175781 416.226562 C 379.316406 416.046875 377.453125 415.953125 375.585938 415.953125 C 373.71875 415.953125 371.859375 416.042969 370.003906 416.226562 C 368.148438 416.410156 366.304688 416.683594 364.476562 417.046875 C 362.648438 417.410156 360.84375 417.859375 359.058594 418.402344 C 357.273438 418.941406 355.519531 419.570312 353.796875 420.28125 C 352.074219 420.992188 350.390625 421.789062 348.746094 422.667969 C 347.097656 423.546875 345.5 424.5 343.949219 425.535156 C 342.398438 426.570312 340.902344 427.679688 339.460938 428.859375 C 338.015625 430.042969 336.636719 431.292969 335.316406 432.609375 C 333.996094 433.925781 332.746094 435.304688 331.558594 436.742188 C 330.375 438.183594 329.265625 439.679688 328.226562 441.226562 C 327.1875 442.777344 326.226562 444.371094 325.347656 446.015625 C 324.464844 447.660156 323.667969 449.339844 322.949219 451.0625 C 322.234375 452.785156 321.605469 454.535156 321.058594 456.320312 C 320.515625 458.101562 320.058594 459.910156 319.691406 461.738281 C 319.324219 463.566406 319.050781 465.40625 318.863281 467.261719 C 318.675781 469.117188 318.582031 470.976562 318.578125 472.839844 Z M 238.335938 633.5625 C 238.386719 624.738281 239.425781 616.027344 241.445312 607.4375 C 243.46875 598.84375 246.421875 590.585938 250.3125 582.664062 C 243.976562 579.621094 237.382812 577.320312 230.53125 575.765625 C 223.679688 574.207031 216.738281 573.433594 209.710938 573.441406 L 170.550781 573.441406 C 169.007812 573.4375 167.46875 573.46875 165.929688 573.539062 C 164.390625 573.609375 162.851562 573.714844 161.316406 573.859375 C 159.785156 574.007812 158.253906 574.191406 156.730469 574.410156 C 155.203125 574.632812 153.683594 574.890625 152.171875 575.183594 C 150.660156 575.480469 149.15625 575.8125 147.660156 576.179688 C 146.164062 576.550781 144.675781 576.957031 143.199219 577.398438 C 141.722656 577.839844 140.257812 578.320312 138.808594 578.835938 C 137.355469 579.347656 135.914062 579.898438 134.488281 580.484375 C 133.0625 581.070312 131.652344 581.6875 130.257812 582.34375 C 128.863281 583 127.484375 583.6875 126.125 584.410156 C 124.761719 585.132812 123.417969 585.886719 122.09375 586.675781 C 120.769531 587.464844 119.464844 588.285156 118.183594 589.136719 C 116.898438 589.988281 115.636719 590.871094 114.398438 591.789062 C 113.15625 592.703125 111.9375 593.644531 110.746094 594.621094 C 109.550781 595.59375 108.382812 596.597656 107.238281 597.628906 C 106.09375 598.664062 104.972656 599.722656 103.882812 600.808594 C 102.789062 601.894531 101.722656 603.007812 100.6875 604.148438 C 99.648438 605.289062 98.640625 606.453125 97.660156 607.640625 C 96.679688 608.828125 95.726562 610.042969 94.808594 611.277344 C 93.886719 612.511719 92.996094 613.769531 92.136719 615.050781 C 91.277344 616.328125 90.449219 617.628906 89.65625 618.949219 C 88.859375 620.269531 88.097656 621.609375 87.367188 622.964844 C 86.640625 624.324219 85.945312 625.699219 85.28125 627.089844 C 84.621094 628.484375 83.992188 629.890625 83.402344 631.3125 C 82.808594 632.734375 82.25 634.171875 81.730469 635.621094 C 81.207031 637.070312 80.722656 638.535156 80.273438 640.007812 C 79.820312 641.480469 79.410156 642.964844 79.03125 644.460938 C 78.65625 645.953125 78.316406 647.457031 78.011719 648.96875 C 77.707031 650.480469 77.441406 651.996094 77.214844 653.519531 C 76.984375 655.046875 76.796875 656.574219 76.640625 658.105469 C 76.488281 659.640625 76.375 661.175781 76.296875 662.714844 C 76.21875 664.253906 76.179688 665.796875 76.175781 667.335938 C 76.179688 669.101562 76.269531 670.859375 76.445312 672.617188 C 76.621094 674.371094 76.882812 676.113281 77.230469 677.84375 C 77.578125 679.570312 78.007812 681.28125 78.523438 682.96875 C 79.039062 684.65625 79.632812 686.3125 80.308594 687.941406 C 80.988281 689.570312 81.742188 691.164062 82.574219 692.71875 C 83.40625 694.273438 84.316406 695.785156 85.296875 697.25 C 86.277344 698.714844 87.328125 700.128906 88.445312 701.492188 C 89.566406 702.855469 90.75 704.164062 91.996094 705.410156 C 93.242188 706.65625 94.546875 707.839844 95.910156 708.960938 C 97.273438 710.078125 98.691406 711.128906 100.15625 712.109375 C 101.621094 713.089844 103.132812 714 104.6875 714.832031 C 106.242188 715.664062 107.835938 716.417969 109.464844 717.097656 C 111.09375 717.773438 112.75 718.367188 114.4375 718.882812 C 116.125 719.398438 117.835938 719.828125 119.5625 720.175781 C 121.292969 720.523438 123.035156 720.785156 124.789062 720.960938 C 126.546875 721.136719 128.304688 721.226562 130.070312 721.230469 L 248.753906 721.230469 C 252.253906 721.230469 255.722656 720.886719 259.15625 720.207031 C 262.589844 719.523438 265.925781 718.515625 269.160156 717.179688 C 272.394531 715.847656 275.46875 714.210938 278.386719 712.269531 C 281.300781 710.332031 284 708.128906 286.480469 705.660156 C 284.710938 704.929688 282.96875 704.132812 281.253906 703.273438 C 279.542969 702.414062 277.863281 701.492188 276.21875 700.507812 C 274.574219 699.523438 272.96875 698.480469 271.398438 697.378906 C 269.832031 696.277344 268.308594 695.117188 266.824219 693.902344 C 265.34375 692.6875 263.910156 691.417969 262.519531 690.097656 C 261.132812 688.777344 259.792969 687.40625 258.507812 685.988281 C 257.21875 684.566406 255.988281 683.101562 254.808594 681.589844 C 253.628906 680.082031 252.507812 678.527344 251.441406 676.933594 C 250.378906 675.339844 249.375 673.710938 248.429688 672.042969 C 247.488281 670.375 246.605469 668.671875 245.789062 666.941406 C 244.96875 665.207031 244.214844 663.445312 243.527344 661.65625 C 242.839844 659.871094 242.21875 658.058594 241.664062 656.222656 C 241.109375 654.390625 240.625 652.535156 240.207031 650.667969 C 239.789062 648.796875 239.441406 646.914062 239.160156 645.015625 C 238.882812 643.121094 238.675781 641.214844 238.539062 639.304688 C 238.398438 637.394531 238.332031 635.480469 238.335938 633.5625 Z M 190.429688 563.621094 C 192.292969 563.605469 194.152344 563.5 196.007812 563.300781 C 197.863281 563.101562 199.703125 562.8125 201.527344 562.4375 C 203.351562 562.058594 205.15625 561.589844 206.9375 561.035156 C 208.714844 560.480469 210.464844 559.835938 212.179688 559.109375 C 213.898438 558.382812 215.574219 557.574219 217.210938 556.683594 C 218.851562 555.789062 220.441406 554.820312 221.984375 553.773438 C 223.523438 552.726562 225.011719 551.605469 226.445312 550.410156 C 227.878906 549.21875 229.246094 547.957031 230.554688 546.628906 C 231.867188 545.300781 233.105469 543.914062 234.277344 542.460938 C 235.449219 541.011719 236.550781 539.507812 237.574219 537.949219 C 238.597656 536.394531 239.546875 534.789062 240.414062 533.140625 C 241.28125 531.488281 242.066406 529.800781 242.765625 528.070312 C 243.46875 526.34375 244.082031 524.585938 244.613281 522.800781 C 245.140625 521.011719 245.582031 519.203125 245.933594 517.371094 C 246.285156 515.539062 246.546875 513.695312 246.71875 511.839844 C 246.890625 509.984375 246.96875 508.121094 246.957031 506.257812 C 246.945312 504.394531 246.84375 502.535156 246.648438 500.679688 C 246.453125 498.824219 246.167969 496.984375 245.796875 495.15625 C 245.421875 493.332031 244.957031 491.527344 244.40625 489.746094 C 243.851562 487.964844 243.214844 486.214844 242.492188 484.496094 C 241.769531 482.777344 240.964844 481.101562 240.074219 479.460938 C 239.1875 477.820312 238.21875 476.230469 237.175781 474.683594 C 236.132812 473.140625 235.015625 471.648438 233.824219 470.214844 C 232.632812 468.78125 231.375 467.40625 230.050781 466.09375 C 228.722656 464.785156 227.339844 463.539062 225.890625 462.363281 C 224.445312 461.191406 222.941406 460.085938 221.386719 459.058594 C 219.832031 458.03125 218.230469 457.082031 216.582031 456.210938 C 214.933594 455.339844 213.246094 454.550781 211.519531 453.847656 C 209.792969 453.140625 208.035156 452.523438 206.25 451.988281 C 204.464844 451.457031 202.65625 451.011719 200.824219 450.65625 C 198.992188 450.300781 197.152344 450.035156 195.292969 449.859375 C 193.4375 449.683594 191.578125 449.601562 189.714844 449.609375 C 187.847656 449.617188 185.988281 449.714844 184.132812 449.90625 C 182.277344 450.097656 180.4375 450.378906 178.609375 450.75 C 176.785156 451.121094 174.980469 451.578125 173.195312 452.125 C 171.414062 452.675781 169.664062 453.308594 167.941406 454.027344 C 166.222656 454.75 164.542969 455.550781 162.902344 456.433594 C 161.261719 457.320312 159.667969 458.28125 158.121094 459.324219 C 156.574219 460.363281 155.082031 461.480469 153.644531 462.667969 C 152.207031 463.855469 150.828125 465.109375 149.515625 466.433594 C 148.199219 467.753906 146.953125 469.136719 145.777344 470.582031 C 144.597656 472.027344 143.492188 473.527344 142.460938 475.082031 C 141.429688 476.632812 140.476562 478.234375 139.601562 479.878906 C 138.726562 481.527344 137.9375 483.210938 137.226562 484.9375 C 136.519531 486.660156 135.894531 488.417969 135.359375 490.203125 C 134.820312 491.988281 134.371094 493.796875 134.011719 495.625 C 133.652344 497.453125 133.386719 499.296875 133.207031 501.152344 C 133.027344 503.007812 132.941406 504.871094 132.945312 506.734375 C 132.949219 508.597656 133.042969 510.457031 133.230469 512.3125 C 133.414062 514.167969 133.691406 516.011719 134.058594 517.839844 C 134.425781 519.667969 134.882812 521.472656 135.425781 523.253906 C 135.972656 525.039062 136.601562 526.792969 137.316406 528.511719 C 138.035156 530.234375 138.832031 531.917969 139.714844 533.558594 C 140.59375 535.203125 141.554688 536.800781 142.59375 538.347656 C 143.632812 539.898438 144.742188 541.390625 145.925781 542.832031 C 147.109375 544.269531 148.363281 545.648438 149.683594 546.96875 C 151.003906 548.285156 152.382812 549.53125 153.828125 550.714844 C 155.269531 551.894531 156.765625 553.003906 158.316406 554.039062 C 159.867188 555.074219 161.464844 556.03125 163.109375 556.90625 C 164.757812 557.785156 166.441406 558.582031 168.164062 559.292969 C 169.886719 560.007812 171.640625 560.632812 173.425781 561.171875 C 175.207031 561.714844 177.015625 562.164062 178.84375 562.527344 C 180.671875 562.890625 182.515625 563.164062 184.371094 563.347656 C 186.226562 563.53125 188.085938 563.621094 189.953125 563.621094 Z M 190.429688 563.621094 " fill-opacity="1" fill-rule="nonzero"/></g></svg>