<svg xmlns="http://www.w3.org/2000/svg" xmlns:xlink="http://www.w3.org/1999/xlink" width="1080" zoomAndPan="magnify" viewBox="0 0 810 809.999993" height="1080" preserveAspectRatio="xMidYMid meet" version="1.0"><defs><g/><clipPath id="607d148636"><rect x="0" width="505" y="0" height="73"/></clipPath><clipPath id="dab7763876"><rect x="0" width="511" y="0" height="40"/></clipPath></defs><g transform="matrix(1, 0, 0, 1, 157, 353)"><g clip-path="url(#607d148636)"><g fill="#090f10" fill-opacity="1"><g transform="translate(1.149024, 53.865915)"><g><path d="M 0.359375 0 L 27.234375 -50.546875 L 34.265625 -50.546875 L 61 0 L 54.703125 0 L 48.03125 -12.109375 L 13.328125 -12.109375 L 6.734375 0 Z M 15.984375 -17.421875 L 45.453125 -17.421875 L 30.828125 -45.3125 L 30.6875 -45.3125 Z M 15.984375 -17.421875 "/></g></g></g><g fill="#090f10" fill-opacity="1"><g transform="translate(72.551139, 53.865915)"><g><path d="M 3.578125 0 L 3.578125 -50.546875 L 11.546875 -50.546875 L 51.828125 -6.015625 L 51.90625 -6.015625 L 51.90625 -50.546875 L 57.921875 -50.546875 L 57.921875 0 L 49.96875 0 L 9.609375 -44.453125 L 9.53125 -44.453125 L 9.53125 0 Z M 3.578125 0 "/></g></g></g><g fill="#090f10" fill-opacity="1"><g transform="translate(144.096628, 53.865915)"><g><path d="M 0.359375 0 L 27.234375 -50.546875 L 34.265625 -50.546875 L 61 0 L 54.703125 0 L 48.03125 -12.109375 L 13.328125 -12.109375 L 6.734375 0 Z M 15.984375 -17.421875 L 45.453125 -17.421875 L 30.828125 -45.3125 L 30.6875 -45.3125 Z M 15.984375 -17.421875 "/></g></g></g><g fill="#090f10" fill-opacity="1"><g transform="translate(207.469587, 53.865915)"><g><path d="M 24.453125 0 L 24.453125 -45.234375 L 0.359375 -45.234375 L 0.359375 -50.546875 L 54.484375 -50.546875 L 54.484375 -45.234375 L 30.390625 -45.234375 L 30.390625 0 Z M 24.453125 0 "/></g></g></g><g fill="#090f10" fill-opacity="1"><g transform="translate(268.046705, 53.865915)"><g><path d="M 37.203125 1.796875 C 32.140625 1.796875 27.503906 1.140625 23.296875 -0.171875 C 19.085938 -1.492188 15.46875 -3.359375 12.4375 -5.765625 C 9.40625 -8.179688 7.050781 -11.035156 5.375 -14.328125 C 3.707031 -17.628906 2.875 -21.265625 2.875 -25.234375 C 2.875 -29.203125 3.707031 -32.847656 5.375 -36.171875 C 7.050781 -39.492188 9.40625 -42.359375 12.4375 -44.765625 C 15.46875 -47.179688 19.085938 -49.046875 23.296875 -50.359375 C 27.503906 -51.671875 32.140625 -52.328125 37.203125 -52.328125 C 42.316406 -52.328125 46.976562 -51.671875 51.1875 -50.359375 C 55.394531 -49.046875 59.015625 -47.179688 62.046875 -44.765625 C 65.078125 -42.359375 67.425781 -39.492188 69.09375 -36.171875 C 70.769531 -32.847656 71.609375 -29.203125 71.609375 -25.234375 C 71.609375 -21.265625 70.769531 -17.628906 69.09375 -14.328125 C 67.425781 -11.035156 65.078125 -8.179688 62.046875 -5.765625 C 59.015625 -3.359375 55.394531 -1.492188 51.1875 -0.171875 C 46.976562 1.140625 42.316406 1.796875 37.203125 1.796875 Z M 37.203125 -3.4375 C 42.796875 -3.4375 47.71875 -4.351562 51.96875 -6.1875 C 56.226562 -8.03125 59.5625 -10.601562 61.96875 -13.90625 C 64.382812 -17.207031 65.59375 -20.984375 65.59375 -25.234375 C 65.59375 -29.535156 64.382812 -33.320312 61.96875 -36.59375 C 59.5625 -39.863281 56.226562 -42.421875 51.96875 -44.265625 C 47.71875 -46.109375 42.796875 -47.03125 37.203125 -47.03125 C 31.660156 -47.03125 26.75 -46.109375 22.46875 -44.265625 C 18.195312 -42.421875 14.851562 -39.863281 12.4375 -36.59375 C 10.019531 -33.320312 8.8125 -29.535156 8.8125 -25.234375 C 8.8125 -20.984375 10.019531 -17.207031 12.4375 -13.90625 C 14.851562 -10.601562 18.195312 -8.03125 22.46875 -6.1875 C 26.75 -4.351562 31.660156 -3.4375 37.203125 -3.4375 Z M 37.203125 -3.4375 "/></g></g></g><g fill="#090f10" fill-opacity="1"><g transform="translate(352.567854, 53.865915)"><g><path d="M 3.578125 0 L 3.578125 -50.546875 L 12.6875 -50.546875 L 37.84375 -5.453125 L 37.921875 -5.453125 L 62.9375 -50.546875 L 72.125 -50.546875 L 72.125 0 L 66.171875 0 L 66.171875 -44.234375 L 66.03125 -44.234375 L 41.5 0 L 34.1875 0 L 9.671875 -44.15625 L 9.53125 -44.15625 L 9.53125 0 Z M 3.578125 0 "/></g></g></g><g fill="#090f10" fill-opacity="1"><g transform="translate(438.307749, 53.865915)"><g><path d="M 25.375 0 L 25.375 -18.78125 L -0.078125 -50.546875 L 7.59375 -50.546875 L 28.3125 -24.296875 L 28.390625 -24.296875 L 48.96875 -50.546875 L 56.5625 -50.546875 L 31.328125 -18.78125 L 31.328125 0 Z M 25.375 0 "/></g></g></g></g></g><g transform="matrix(1, 0, 0, 1, 162, 425)"><g clip-path="url(#dab7763876)"><g fill="#2c2d2b" fill-opacity="1"><g transform="translate(1.020584, 30.756909)"><g><path d="M 26.78125 -22.296875 L 26.78125 0 L 24.515625 0 L 24.515625 -17.828125 L 15.765625 -2.828125 L 14.640625 -2.828125 L 5.890625 -17.734375 L 5.890625 0 L 3.625 0 L 3.625 -22.296875 L 5.578125 -22.296875 L 15.25 -5.765625 L 24.84375 -22.296875 Z M 26.78125 -22.296875 "/></g></g></g><g fill="#2c2d2b" fill-opacity="1"><g transform="translate(56.895567, 30.756909)"><g><path d="M 17.609375 -5.953125 L 5.1875 -5.953125 L 2.515625 0 L 0.0625 0 L 10.25 -22.296875 L 12.578125 -22.296875 L 22.765625 0 L 20.28125 0 Z M 16.75 -7.859375 L 11.40625 -19.84375 L 6.046875 -7.859375 Z M 16.75 -7.859375 "/></g></g></g><g fill="#2c2d2b" fill-opacity="1"><g transform="translate(105.194932, 30.756909)"><g><path d="M 9.78125 0.1875 C 8.125 0.1875 6.535156 -0.078125 5.015625 -0.609375 C 3.492188 -1.140625 2.320312 -1.835938 1.5 -2.703125 L 2.421875 -4.515625 C 3.222656 -3.710938 4.289062 -3.0625 5.625 -2.5625 C 6.96875 -2.0625 8.351562 -1.8125 9.78125 -1.8125 C 11.769531 -1.8125 13.265625 -2.175781 14.265625 -2.90625 C 15.265625 -3.644531 15.765625 -4.597656 15.765625 -5.765625 C 15.765625 -6.648438 15.492188 -7.359375 14.953125 -7.890625 C 14.410156 -8.421875 13.742188 -8.828125 12.953125 -9.109375 C 12.171875 -9.398438 11.082031 -9.71875 9.6875 -10.0625 C 8.007812 -10.488281 6.671875 -10.894531 5.671875 -11.28125 C 4.671875 -11.675781 3.8125 -12.273438 3.09375 -13.078125 C 2.382812 -13.890625 2.03125 -14.988281 2.03125 -16.375 C 2.03125 -17.5 2.328125 -18.519531 2.921875 -19.4375 C 3.523438 -20.363281 4.441406 -21.101562 5.671875 -21.65625 C 6.898438 -22.207031 8.425781 -22.484375 10.25 -22.484375 C 11.53125 -22.484375 12.78125 -22.304688 14 -21.953125 C 15.21875 -21.609375 16.269531 -21.125 17.15625 -20.5 L 16.375 -18.625 C 15.4375 -19.238281 14.4375 -19.695312 13.375 -20 C 12.3125 -20.3125 11.269531 -20.46875 10.25 -20.46875 C 8.300781 -20.46875 6.832031 -20.09375 5.84375 -19.34375 C 4.851562 -18.59375 4.359375 -17.625 4.359375 -16.4375 C 4.359375 -15.539062 4.628906 -14.820312 5.171875 -14.28125 C 5.710938 -13.738281 6.390625 -13.320312 7.203125 -13.03125 C 8.023438 -12.75 9.128906 -12.4375 10.515625 -12.09375 C 12.140625 -11.695312 13.457031 -11.300781 14.46875 -10.90625 C 15.476562 -10.507812 16.332031 -9.910156 17.03125 -9.109375 C 17.738281 -8.316406 18.09375 -7.242188 18.09375 -5.890625 C 18.09375 -4.765625 17.785156 -3.738281 17.171875 -2.8125 C 16.566406 -1.894531 15.640625 -1.164062 14.390625 -0.625 C 13.140625 -0.0820312 11.601562 0.1875 9.78125 0.1875 Z M 9.78125 0.1875 "/></g></g></g><g fill="#2c2d2b" fill-opacity="1"><g transform="translate(149.929222, 30.756909)"><g><path d="M 7.953125 -20.25 L 0.125 -20.25 L 0.125 -22.296875 L 18.15625 -22.296875 L 18.15625 -20.25 L 10.3125 -20.25 L 10.3125 0 L 7.953125 0 Z M 7.953125 -20.25 "/></g></g></g><g fill="#2c2d2b" fill-opacity="1"><g transform="translate(193.676861, 30.756909)"><g><path d="M 19.390625 -2.03125 L 19.390625 0 L 3.625 0 L 3.625 -22.296875 L 18.921875 -22.296875 L 18.921875 -20.25 L 5.984375 -20.25 L 5.984375 -12.328125 L 17.515625 -12.328125 L 17.515625 -10.3125 L 5.984375 -10.3125 L 5.984375 -2.03125 Z M 19.390625 -2.03125 "/></g></g></g><g fill="#2c2d2b" fill-opacity="1"><g transform="translate(240.448378, 30.756909)"><g><path d="M 18.84375 0 L 13.75 -7.171875 C 13.175781 -7.097656 12.582031 -7.0625 11.96875 -7.0625 L 5.984375 -7.0625 L 5.984375 0 L 3.625 0 L 3.625 -22.296875 L 11.96875 -22.296875 C 14.8125 -22.296875 17.039062 -21.613281 18.65625 -20.25 C 20.269531 -18.894531 21.078125 -17.023438 21.078125 -14.640625 C 21.078125 -12.898438 20.632812 -11.429688 19.75 -10.234375 C 18.875 -9.035156 17.617188 -8.171875 15.984375 -7.640625 L 21.4375 0 Z M 11.90625 -9.078125 C 14.113281 -9.078125 15.800781 -9.5625 16.96875 -10.53125 C 18.132812 -11.507812 18.71875 -12.878906 18.71875 -14.640625 C 18.71875 -16.453125 18.132812 -17.835938 16.96875 -18.796875 C 15.800781 -19.765625 14.113281 -20.25 11.90625 -20.25 L 5.984375 -20.25 L 5.984375 -9.078125 Z M 11.90625 -9.078125 "/></g></g></g><g fill="#2c2d2b" fill-opacity="1"><g transform="translate(288.938743, 30.756909)"><g/></g></g><g fill="#2c2d2b" fill-opacity="1"><g transform="translate(322.755321, 30.756909)"><g><path d="M 5.984375 -20.25 L 5.984375 -11.5 L 17.515625 -11.5 L 17.515625 -9.453125 L 5.984375 -9.453125 L 5.984375 0 L 3.625 0 L 3.625 -22.296875 L 18.921875 -22.296875 L 18.921875 -20.25 Z M 5.984375 -20.25 "/></g></g></g><g fill="#2c2d2b" fill-opacity="1"><g transform="translate(367.330238, 30.756909)"><g><path d="M 17.609375 -5.953125 L 5.1875 -5.953125 L 2.515625 0 L 0.0625 0 L 10.25 -22.296875 L 12.578125 -22.296875 L 22.765625 0 L 20.28125 0 Z M 16.75 -7.859375 L 11.40625 -19.84375 L 6.046875 -7.859375 Z M 16.75 -7.859375 "/></g></g></g><g fill="#2c2d2b" fill-opacity="1"><g transform="translate(415.311211, 30.756909)"><g><path d="M 13.3125 0.1875 C 11.101562 0.1875 9.113281 -0.296875 7.34375 -1.265625 C 5.570312 -2.242188 4.179688 -3.597656 3.171875 -5.328125 C 2.160156 -7.054688 1.65625 -8.992188 1.65625 -11.140625 C 1.65625 -13.285156 2.160156 -15.222656 3.171875 -16.953125 C 4.179688 -18.679688 5.578125 -20.035156 7.359375 -21.015625 C 9.140625 -21.992188 11.132812 -22.484375 13.34375 -22.484375 C 15 -22.484375 16.523438 -22.207031 17.921875 -21.65625 C 19.328125 -21.101562 20.519531 -20.296875 21.5 -19.234375 L 20 -17.734375 C 18.257812 -19.492188 16.0625 -20.375 13.40625 -20.375 C 11.644531 -20.375 10.039062 -19.96875 8.59375 -19.15625 C 7.15625 -18.351562 6.023438 -17.25 5.203125 -15.84375 C 4.390625 -14.445312 3.984375 -12.878906 3.984375 -11.140625 C 3.984375 -9.398438 4.390625 -7.828125 5.203125 -6.421875 C 6.023438 -5.023438 7.15625 -3.921875 8.59375 -3.109375 C 10.039062 -2.304688 11.644531 -1.90625 13.40625 -1.90625 C 16.082031 -1.90625 18.28125 -2.796875 20 -4.578125 L 21.5 -3.09375 C 20.519531 -2.03125 19.320312 -1.21875 17.90625 -0.65625 C 16.5 -0.09375 14.96875 0.1875 13.3125 0.1875 Z M 13.3125 0.1875 "/></g></g></g><g fill="#2c2d2b" fill-opacity="1"><g transform="translate(463.67426, 30.756909)"><g><path d="M 19.390625 -2.03125 L 19.390625 0 L 3.625 0 L 3.625 -22.296875 L 18.921875 -22.296875 L 18.921875 -20.25 L 5.984375 -20.25 L 5.984375 -12.328125 L 17.515625 -12.328125 L 17.515625 -10.3125 L 5.984375 -10.3125 L 5.984375 -2.03125 Z M 19.390625 -2.03125 "/></g></g></g></g></g></svg>