<svg xmlns="http://www.w3.org/2000/svg" xmlns:xlink="http://www.w3.org/1999/xlink" width="1080" zoomAndPan="magnify" viewBox="0 0 810 809.999993" height="1080" preserveAspectRatio="xMidYMid meet" version="1.0"><defs><g/><clipPath id="e9a5b3feee"><path d="M 5 73 L 530.640625 73 L 530.640625 113.839844 L 5 113.839844 Z M 5 73 " clip-rule="nonzero"/></clipPath><clipPath id="d525ea46b5"><rect x="0" width="526" y="0" height="41"/></clipPath><clipPath id="ffefbf74d2"><rect x="0" width="531" y="0" height="114"/></clipPath></defs><g transform="matrix(1, 0, 0, 1, 150, 352)"><g clip-path="url(#ffefbf74d2)"><g fill="#ffffff" fill-opacity="1"><g transform="translate(0.878712, 54.920932)"><g><path d="M 0.375 0 L 28.046875 -52.03125 L 35.28125 -52.03125 L 62.796875 0 L 56.3125 0 L 49.4375 -12.46875 L 13.71875 -12.46875 L 6.9375 0 Z M 16.453125 -17.9375 L 46.78125 -17.9375 L 31.734375 -46.640625 L 31.578125 -46.640625 Z M 16.453125 -17.9375 "/></g></g></g><g fill="#ffffff" fill-opacity="1"><g transform="translate(74.383781, 54.920932)"><g><path d="M 3.6875 0 L 3.6875 -52.03125 L 11.875 -52.03125 L 53.359375 -6.203125 L 53.421875 -6.203125 L 53.421875 -52.03125 L 59.625 -52.03125 L 59.625 0 L 51.4375 0 L 9.890625 -45.75 L 9.8125 -45.75 L 9.8125 0 Z M 3.6875 0 "/></g></g></g><g fill="#ffffff" fill-opacity="1"><g transform="translate(148.036446, 54.920932)"><g><path d="M 0.375 0 L 28.046875 -52.03125 L 35.28125 -52.03125 L 62.796875 0 L 56.3125 0 L 49.4375 -12.46875 L 13.71875 -12.46875 L 6.9375 0 Z M 16.453125 -17.9375 L 46.78125 -17.9375 L 31.734375 -46.640625 L 31.578125 -46.640625 Z M 16.453125 -17.9375 "/></g></g></g><g fill="#ffffff" fill-opacity="1"><g transform="translate(213.275883, 54.920932)"><g><path d="M 25.171875 0 L 25.171875 -46.5625 L 0.375 -46.5625 L 0.375 -52.03125 L 56.078125 -52.03125 L 56.078125 -46.5625 L 31.296875 -46.5625 L 31.296875 0 Z M 25.171875 0 "/></g></g></g><g fill="#ffffff" fill-opacity="1"><g transform="translate(275.637134, 54.920932)"><g><path d="M 38.296875 1.84375 C 33.085938 1.84375 28.316406 1.164062 23.984375 -0.1875 C 19.648438 -1.539062 15.921875 -3.457031 12.796875 -5.9375 C 9.679688 -8.425781 7.257812 -11.363281 5.53125 -14.75 C 3.8125 -18.144531 2.953125 -21.882812 2.953125 -25.96875 C 2.953125 -30.0625 3.8125 -33.816406 5.53125 -37.234375 C 7.257812 -40.648438 9.679688 -43.597656 12.796875 -46.078125 C 15.921875 -48.566406 19.648438 -50.488281 23.984375 -51.84375 C 28.316406 -53.195312 33.085938 -53.875 38.296875 -53.875 C 43.566406 -53.875 48.363281 -53.195312 52.6875 -51.84375 C 57.019531 -50.488281 60.75 -48.566406 63.875 -46.078125 C 67 -43.597656 69.421875 -40.648438 71.140625 -37.234375 C 72.859375 -33.816406 73.71875 -30.0625 73.71875 -25.96875 C 73.71875 -21.882812 72.859375 -18.144531 71.140625 -14.75 C 69.421875 -11.363281 67 -8.425781 63.875 -5.9375 C 60.75 -3.457031 57.019531 -1.539062 52.6875 -0.1875 C 48.363281 1.164062 43.566406 1.84375 38.296875 1.84375 Z M 38.296875 -3.546875 C 44.054688 -3.546875 49.125 -4.488281 53.5 -6.375 C 57.882812 -8.269531 61.316406 -10.914062 63.796875 -14.3125 C 66.285156 -17.707031 67.53125 -21.59375 67.53125 -25.96875 C 67.53125 -30.40625 66.285156 -34.304688 63.796875 -37.671875 C 61.316406 -41.046875 57.882812 -43.675781 53.5 -45.5625 C 49.125 -47.457031 44.054688 -48.40625 38.296875 -48.40625 C 32.585938 -48.40625 27.53125 -47.457031 23.125 -45.5625 C 18.726562 -43.675781 15.285156 -41.046875 12.796875 -37.671875 C 10.316406 -34.304688 9.078125 -30.40625 9.078125 -25.96875 C 9.078125 -21.59375 10.316406 -17.707031 12.796875 -14.3125 C 15.285156 -10.914062 18.726562 -8.269531 23.125 -6.375 C 27.53125 -4.488281 32.585938 -3.546875 38.296875 -3.546875 Z M 38.296875 -3.546875 "/></g></g></g><g fill="#ffffff" fill-opacity="1"><g transform="translate(362.647622, 54.920932)"><g><path d="M 3.6875 0 L 3.6875 -52.03125 L 13.0625 -52.03125 L 38.96875 -5.609375 L 39.03125 -5.609375 L 64.796875 -52.03125 L 74.234375 -52.03125 L 74.234375 0 L 68.109375 0 L 68.109375 -45.53125 L 67.96875 -45.53125 L 42.734375 0 L 35.203125 0 L 9.96875 -45.453125 L 9.8125 -45.453125 L 9.8125 0 Z M 3.6875 0 "/></g></g></g><g fill="#ffffff" fill-opacity="1"><g transform="translate(450.912751, 54.920932)"><g><path d="M 26.125 0 L 26.125 -19.328125 L -0.078125 -52.03125 L 7.828125 -52.03125 L 29.15625 -25.015625 L 29.21875 -25.015625 L 50.40625 -52.03125 L 58.21875 -52.03125 L 32.25 -19.328125 L 32.25 0 Z M 26.125 0 "/></g></g></g><g clip-path="url(#e9a5b3feee)"><g transform="matrix(1, 0, 0, 1, 5, 73)"><g clip-path="url(#d525ea46b5)"><g fill="#ffffff" fill-opacity="1"><g transform="translate(0.893753, 32.251833)"><g><path d="M 27.5625 -22.953125 L 27.5625 0 L 25.234375 0 L 25.234375 -18.359375 L 16.234375 -2.921875 L 15.078125 -2.921875 L 6.0625 -18.265625 L 6.0625 0 L 3.734375 0 L 3.734375 -22.953125 L 5.734375 -22.953125 L 15.703125 -5.9375 L 25.5625 -22.953125 Z M 27.5625 -22.953125 "/></g></g></g><g fill="#ffffff" fill-opacity="1"><g transform="translate(58.41438, 32.251833)"><g><path d="M 18.125 -6.125 L 5.34375 -6.125 L 2.59375 0 L 0.0625 0 L 10.5625 -22.953125 L 12.953125 -22.953125 L 23.4375 0 L 20.875 0 Z M 17.25 -8.09375 L 11.734375 -20.421875 L 6.234375 -8.09375 Z M 17.25 -8.09375 "/></g></g></g><g fill="#ffffff" fill-opacity="1"><g transform="translate(108.13627, 32.251833)"><g><path d="M 10.0625 0.203125 C 8.351562 0.203125 6.71875 -0.0664062 5.15625 -0.609375 C 3.59375 -1.160156 2.390625 -1.882812 1.546875 -2.78125 L 2.484375 -4.65625 C 3.316406 -3.820312 4.421875 -3.148438 5.796875 -2.640625 C 7.179688 -2.128906 8.601562 -1.875 10.0625 -1.875 C 12.113281 -1.875 13.65625 -2.25 14.6875 -3 C 15.71875 -3.75 16.234375 -4.726562 16.234375 -5.9375 C 16.234375 -6.851562 15.953125 -7.582031 15.390625 -8.125 C 14.835938 -8.675781 14.15625 -9.097656 13.34375 -9.390625 C 12.53125 -9.679688 11.40625 -10.003906 9.96875 -10.359375 C 8.238281 -10.796875 6.859375 -11.21875 5.828125 -11.625 C 4.804688 -12.03125 3.925781 -12.644531 3.1875 -13.46875 C 2.457031 -14.300781 2.09375 -15.425781 2.09375 -16.84375 C 2.09375 -18.007812 2.398438 -19.066406 3.015625 -20.015625 C 3.628906 -20.960938 4.566406 -21.71875 5.828125 -22.28125 C 7.097656 -22.851562 8.675781 -23.140625 10.5625 -23.140625 C 11.863281 -23.140625 13.144531 -22.957031 14.40625 -22.59375 C 15.664062 -22.238281 16.753906 -21.742188 17.671875 -21.109375 L 16.84375 -19.171875 C 15.882812 -19.804688 14.859375 -20.28125 13.765625 -20.59375 C 12.671875 -20.914062 11.601562 -21.078125 10.5625 -21.078125 C 8.550781 -21.078125 7.035156 -20.6875 6.015625 -19.90625 C 4.992188 -19.132812 4.484375 -18.140625 4.484375 -16.921875 C 4.484375 -15.992188 4.757812 -15.25 5.3125 -14.6875 C 5.875 -14.132812 6.578125 -13.710938 7.421875 -13.421875 C 8.265625 -13.128906 9.394531 -12.804688 10.8125 -12.453125 C 12.5 -12.035156 13.859375 -11.625 14.890625 -11.21875 C 15.929688 -10.820312 16.8125 -10.210938 17.53125 -9.390625 C 18.257812 -8.566406 18.625 -7.457031 18.625 -6.0625 C 18.625 -4.90625 18.3125 -3.847656 17.6875 -2.890625 C 17.0625 -1.941406 16.101562 -1.1875 14.8125 -0.625 C 13.53125 -0.0703125 11.945312 0.203125 10.0625 0.203125 Z M 10.0625 0.203125 "/></g></g></g><g fill="#ffffff" fill-opacity="1"><g transform="translate(154.188086, 32.251833)"><g><path d="M 8.203125 -20.84375 L 0.125 -20.84375 L 0.125 -22.953125 L 18.6875 -22.953125 L 18.6875 -20.84375 L 10.625 -20.84375 L 10.625 0 L 8.203125 0 Z M 8.203125 -20.84375 "/></g></g></g><g fill="#ffffff" fill-opacity="1"><g transform="translate(199.224191, 32.251833)"><g><path d="M 19.96875 -2.09375 L 19.96875 0 L 3.734375 0 L 3.734375 -22.953125 L 19.46875 -22.953125 L 19.46875 -20.84375 L 6.15625 -20.84375 L 6.15625 -12.6875 L 18.03125 -12.6875 L 18.03125 -10.625 L 6.15625 -10.625 L 6.15625 -2.09375 Z M 19.96875 -2.09375 "/></g></g></g><g fill="#ffffff" fill-opacity="1"><g transform="translate(247.373236, 32.251833)"><g><path d="M 19.40625 0 L 14.15625 -7.375 C 13.570312 -7.3125 12.960938 -7.28125 12.328125 -7.28125 L 6.15625 -7.28125 L 6.15625 0 L 3.734375 0 L 3.734375 -22.953125 L 12.328125 -22.953125 C 15.253906 -22.953125 17.546875 -22.25 19.203125 -20.84375 C 20.867188 -19.445312 21.703125 -17.523438 21.703125 -15.078125 C 21.703125 -13.285156 21.25 -11.769531 20.34375 -10.53125 C 19.4375 -9.300781 18.140625 -8.414062 16.453125 -7.875 L 22.0625 0 Z M 12.265625 -9.34375 C 14.535156 -9.34375 16.269531 -9.84375 17.46875 -10.84375 C 18.675781 -11.851562 19.28125 -13.265625 19.28125 -15.078125 C 19.28125 -16.929688 18.675781 -18.351562 17.46875 -19.34375 C 16.269531 -20.34375 14.535156 -20.84375 12.265625 -20.84375 L 6.15625 -20.84375 L 6.15625 -9.34375 Z M 12.265625 -9.34375 "/></g></g></g><g fill="#ffffff" fill-opacity="1"><g transform="translate(297.291751, 32.251833)"><g/></g></g><g fill="#ffffff" fill-opacity="1"><g transform="translate(332.104304, 32.251833)"><g><path d="M 6.15625 -20.84375 L 6.15625 -11.828125 L 18.03125 -11.828125 L 18.03125 -9.734375 L 6.15625 -9.734375 L 6.15625 0 L 3.734375 0 L 3.734375 -22.953125 L 19.46875 -22.953125 L 19.46875 -20.84375 Z M 6.15625 -20.84375 "/></g></g></g><g fill="#ffffff" fill-opacity="1"><g transform="translate(377.992052, 32.251833)"><g><path d="M 18.125 -6.125 L 5.34375 -6.125 L 2.59375 0 L 0.0625 0 L 10.5625 -22.953125 L 12.953125 -22.953125 L 23.4375 0 L 20.875 0 Z M 17.25 -8.09375 L 11.734375 -20.421875 L 6.234375 -8.09375 Z M 17.25 -8.09375 "/></g></g></g><g fill="#ffffff" fill-opacity="1"><g transform="translate(427.386173, 32.251833)"><g><path d="M 13.703125 0.203125 C 11.429688 0.203125 9.378906 -0.296875 7.546875 -1.296875 C 5.722656 -2.304688 4.289062 -3.703125 3.25 -5.484375 C 2.21875 -7.265625 1.703125 -9.257812 1.703125 -11.46875 C 1.703125 -13.675781 2.21875 -15.671875 3.25 -17.453125 C 4.289062 -19.234375 5.726562 -20.625 7.5625 -21.625 C 9.40625 -22.632812 11.460938 -23.140625 13.734375 -23.140625 C 15.441406 -23.140625 17.015625 -22.851562 18.453125 -22.28125 C 19.898438 -21.71875 21.125 -20.890625 22.125 -19.796875 L 20.59375 -18.265625 C 18.800781 -20.078125 16.535156 -20.984375 13.796875 -20.984375 C 11.984375 -20.984375 10.332031 -20.566406 8.84375 -19.734375 C 7.363281 -18.898438 6.203125 -17.757812 5.359375 -16.3125 C 4.515625 -14.875 4.09375 -13.257812 4.09375 -11.46875 C 4.09375 -9.675781 4.515625 -8.054688 5.359375 -6.609375 C 6.203125 -5.171875 7.363281 -4.035156 8.84375 -3.203125 C 10.332031 -2.378906 11.984375 -1.96875 13.796875 -1.96875 C 16.554688 -1.96875 18.820312 -2.882812 20.59375 -4.71875 L 22.125 -3.1875 C 21.125 -2.09375 19.894531 -1.253906 18.4375 -0.671875 C 16.988281 -0.0859375 15.410156 0.203125 13.703125 0.203125 Z M 13.703125 0.203125 "/></g></g></g><g fill="#ffffff" fill-opacity="1"><g transform="translate(477.173623, 32.251833)"><g><path d="M 19.96875 -2.09375 L 19.96875 0 L 3.734375 0 L 3.734375 -22.953125 L 19.46875 -22.953125 L 19.46875 -20.84375 L 6.15625 -20.84375 L 6.15625 -12.6875 L 18.03125 -12.6875 L 18.03125 -10.625 L 6.15625 -10.625 L 6.15625 -2.09375 Z M 19.96875 -2.09375 "/></g></g></g></g></g></g></g></g></svg>